<svg width="31" height="24" viewBox="0 0 31 24" fill="none" xmlns="http://www.w3.org/2000/svg">
<g filter="url(#filter0_d_1_1656)">
<path d="M25.1941 0H15.3695H5.54497C5.00238 0 4.5625 0.43988 4.5625 0.98247V15.0175C4.5625 15.5601 5.00238 16 5.54497 16H15.3695H25.1941C25.7367 16 26.1766 15.5601 26.1766 15.0175V0.98247C26.1766 0.43988 25.7367 0 25.1941 0Z" fill="#5286F9"/>
<path d="M16.1204 5.2042C16.3363 5.45158 16.5244 5.72387 16.6792 6.0165C16.9927 6.60924 17.1712 7.28405 17.1712 8.00002C17.1712 8.71599 16.9927 9.39071 16.6792 9.98353C16.5244 10.2762 16.3363 10.5484 16.1204 10.7958C15.8982 11.0503 15.6463 11.2781 15.37 11.4741C16.0646 11.9665 16.9118 12.2573 17.8261 12.2573C20.1736 12.2573 22.0835 10.3475 22.0835 8.00002C22.0835 5.65257 20.1736 3.74268 17.8261 3.74268C16.9118 3.74268 16.0646 4.03337 15.37 4.52589C15.6463 4.72185 15.8981 4.94969 16.1204 5.2042Z" fill="#FFB655"/>
<path d="M16.6795 6.01654C16.5247 5.72382 16.3367 5.45162 16.1207 5.20424C15.8984 4.94964 15.6466 4.72193 15.3703 4.52601C14.6758 4.03349 13.8285 3.7428 12.9142 3.7428C10.5667 3.7428 8.65686 5.65265 8.65686 8.0001C8.65686 10.3475 10.5667 12.2574 12.9142 12.2574C13.8285 12.2574 14.6758 11.9667 15.3703 11.4742C15.6467 11.2783 15.8984 11.0504 16.1207 10.7959C16.3367 10.5485 16.5247 10.2762 16.6795 9.9837C16.993 9.39087 17.1715 8.71606 17.1715 8.00018C17.1715 7.28405 16.993 6.60928 16.6795 6.01654Z" fill="#D8143A"/>
<path d="M12.9134 12.2574C10.5659 12.2574 8.65609 10.3476 8.65609 8.00013C8.65609 5.65268 10.5659 3.74283 12.9134 3.74283C13.8277 3.74283 14.6749 4.03352 15.3695 4.52604V0H5.54497C5.00238 0 4.5625 0.43988 4.5625 0.98247V15.0175C4.5625 15.5601 5.00238 16 5.54497 16H15.3695V11.4741C14.6749 11.9666 13.8277 12.2574 12.9134 12.2574Z" fill="#3D6DEB"/>
</g>
<defs>
<filter id="filter0_d_1_1656" x="0.5625" y="0" width="29.6141" height="24" filterUnits="userSpaceOnUse" color-interpolation-filters="sRGB">
<feFlood flood-opacity="0" result="BackgroundImageFix"/>
<feColorMatrix in="SourceAlpha" type="matrix" values="0 0 0 0 0 0 0 0 0 0 0 0 0 0 0 0 0 0 127 0" result="hardAlpha"/>
<feOffset dy="4"/>
<feGaussianBlur stdDeviation="2"/>
<feComposite in2="hardAlpha" operator="out"/>
<feColorMatrix type="matrix" values="0 0 0 0 0 0 0 0 0 0 0 0 0 0 0 0 0 0 0.25 0"/>
<feBlend mode="normal" in2="BackgroundImageFix" result="effect1_dropShadow_1_1656"/>
<feBlend mode="normal" in="SourceGraphic" in2="effect1_dropShadow_1_1656" result="shape"/>
</filter>
</defs>
</svg>
